<svg xmlns="http://www.w3.org/2000/svg" xml:space="preserve" width="433.92" height="393.177" style="shape-rendering:geometricPrecision;text-rendering:geometricPrecision;image-rendering:optimizeQuality;fill-rule:evenodd;clip-rule:evenodd" viewBox="0 0 73.021 66.165"><defs><style>.fil3{fill:#000}.fil0{fill:#ff7010}.fil2{fill:#a09f9f}</style></defs><g id="Слой_x0020_1"><g id="_84320536"><path id="_83478808" d="m22.434 4.945.039.192.154.268.039.192.039.192.039.192.244.17-.282.137-.192.039-.192.039-.192.039-.191.039-.192.039-.192.038-.192.04-.269.154-.191.038-.192.04-.192.038-.269.155-.192.038-.268.155-.192.039-.268.154-.192.039-.268.154-.269.154-.268.155-.269.154-.192.039-.344.27-.269.154-.268.154-.269.154-.345.27-.344.27-.345.27-.269.154-.345.27-.421.384-.421.385-.345.27-.422.385-.498.5-.574.617-.65.73-.881 1.078-1.454 2.193-.65 1.23-.343.769-.19.538-.115.423-.114.422-.114.423-.038.307-.692-.459-.769-.343-.307-.038.153-.23.114-.423.114-.423.114-.423.114-.422.268-.654.343-.769.803-1.46.535-.809 1.263-1.654.804-.962.498-.5.498-.501.574-.616.345-.27.422-.385.344-.27.422-.384.345-.27.345-.27.268-.154.345-.27.345-.27.268-.154.269-.154.344-.27.269-.154.268-.154.269-.154.268-.155.192-.039.268-.154.269-.154.268-.154.192-.04.192-.038.268-.155.192-.039.269-.154.191-.039.192-.039.192-.038.269-.155.192-.039.191-.038.192-.04.192-.038.192-.04.192-.038.192-.039.192-.039.192-.039.346.23zm1.238 3.644.039.192.154.269.039.192.039.192.154.268.04.192.038.192.154.268.04.192.038.192.154.268.04.192.038.192.154.268.04.192.038.192.154.269.04.192.038.191.155.269.038.192.04.192.154.268.039.192.154.268.039.192.039.192.154.268.039.192.039.192.154.269.039.192.039.191.154.269.039.192.039.192.154.268.039.192.039.192.154.268.039.192.039.192.154.268.04.192.038.192.154.268.04.192.038.192.154.269.04.192.154.268.038.192.04.192.038.192.154.268.04.192.038.192.04.192.153.268.04.192.038.192.04.192.038.192.154.268.04.192.038.192.039.192.154.268.04.192.038.192.039.192.039.192.154.268.039.192.039.192.039.192.154.268.039.192.039.192.039.192.039.192.154.268.039.192.039.192.039.192.154.268.039.192.039.192.039.192.038.192.155.268.039.192.038.192.04.192.154.268.039.192.039.192.038.192.04.192.154.268.038.192.04.192-.077.115-.654-.267-.538-.19-.653-.267-.654-.268-.653-.267-.654-.267-.653-.267-.538-.19-.654-.268-.653-.267-.653-.267-.654-.267-.653-.267-.538-.19-.654-.268-.653-.267-.77-.343-.768-.344-.884-.42-.77-.344-.768-.343-.769-.344-.769-.344-.884-.42-.769-.343-.769-.344-.769-.344-.768-.343-.77-.344-.999-.496.153-.231.038-.307.114-.423.19-.538.268-.654.42-.884 1.912-2.885.727-.846.575-.616.498-.5.498-.501.345-.27.421-.385.421-.385.345-.27.345-.27.269-.154.344-.27.345-.269.269-.154.268-.154.269-.155.268-.154.268-.154.269-.155.268-.154.269-.154.191-.04.269-.153.192-.04.268-.154.192-.038.268-.155.192-.039.192-.039.192-.038.268-.155.192-.039.192-.039.192-.038.192-.04.307.038.192-.039.231.153zM4.793 43.581l-.154-.269-.154-.268-.155-.269-.154-.268-.154-.268-.155-.269-.038-.192-.155-.268-.039-.192-.154-.268-.039-.192-.154-.269-.039-.192-.039-.191-.154-.269-.04-.192-.038-.192-.039-.191-.039-.192-.039-.192-.154-.269-.039-.192-.039-.191-.039-.192-.039-.192-.038-.192-.04-.192-.038-.192-.04-.192.038-.307-.038-.192-.04-.192-.038-.192-.04-.192-.038-.192-.039-.191.038-.308-.04-.192-.038-.191.038-.308-.04-.192-.038-.192.037-.307-.038-.192-.04-.192.038-.307-.039-.192.038-.307-.039-.192.038-.307-.04-.192.038-.307-.039-.192.038-.308.038-.307-.04-.192.038-.307.038-.307.038-.308.037-.307.038-.307.037-.307.038-.308.038-.307.114-.423.037-.307.038-.307.114-.423.114-.423.114-.422.191-.538.19-.538.344-.77.497-.999.535-.808.269-.154.653.267.769.344-.306.461-.65 1.23-.267.654-.19.538-.19.538-.115.423-.114.423-.114.422-.114.423-.038.307-.038.308-.037.307-.114.423-.038.307-.038.307-.037.307.039.192-.038.308-.037.307-.038.307.039.192-.038.307.04.192-.038.307-.038.308.039.192-.038.307.04.192.038.192-.038.307.04.192.038.192-.038.307.04.192.038.192-.037.307.039.192.038.192.04.192.038.192.04.192.038.192-.038.307.04.192.038.192.04.191.038.192.039.192.039.192.039.192.039.192.038.192.04.192.038.192.155.268.038.192.04.192.038.192.154.268.04.192.038.192.155.268.038.192.04.192.154.268.039.192.154.269.154.268.039.192.154.268.27.345.154.269.154.268.36.247-.282.137-.268.154-.192.039-.268.154-.269.155-.192.038-.461-.306-.27-.344zm25.008-10.663-.268.155-.268.154-.192.039-.269.154-.268.154-.192.04-.268.154-.269.154-.268.154-.192.039-.268.154-.269.155-.268.154-.192.039-.268.154-.269.154-.192.04-.268.153-.269.155-.268.154-.192.039-.268.154-.269.154-.191.04-.269.154-.268.154-.269.154-.192.04-.268.153-.268.155-.269.154-.192.039-.268.154-.268.154-.192.04-.269.154-.268.154-.268.154-.192.04-.269.153-.268.155-.192.039-.268.154-.192.039-.269.154-.192.039-.268.154-.268.154-.192.04-.269.154-.192.039-.268.154-.192.039-.268.154-.269.154-.192.04-.268.153-.192.04-.268.154-.192.039-.269.154-.191.039-.269.154-.268.154-.192.04-.268.153-.192.04-.269.154-.192.039-.268.154-.268.154-.192.039-.269.154-.192.04-.268.153-.192.04-.268.154-.192.038-.269.155-.268.154-.192.039-.268.154-.192.04-.269.153-.191.04-.269.154-.192.038-.23-.152-.155-.269-.154-.268-.27-.345-.154-.269-.154-.268-.04-.192-.153-.268-.155-.269-.039-.192-.154-.268-.039-.192-.039-.192-.154-.268-.039-.192-.039-.192-.039-.192-.154-.268-.039-.192-.039-.192-.039-.192-.038-.192-.04-.192-.038-.192-.04-.191-.038-.192-.039-.192-.039-.192-.039-.192-.039-.192-.039-.192.038-.307-.039-.192-.039-.192-.039-.192-.039-.192.038-.307-.039-.192-.039-.192.038-.307-.039-.192-.039-.192.038-.307-.04-.192.038-.307-.038-.192.037-.307-.039-.192.038-.308.037-.307-.038-.192.037-.307.038-.307.037-.308.038-.307.038-.307.037-.308.038-.307.038-.307.037-.307.114-.423.114-.423.114-.422.115-.423.114-.423.19-.538.344-.769.726-1.345.346.229.654.267.653.267.653.267.654.268.538.19.654.267.653.267.653.267.654.268.653.267.654.267.653.267.654.267.653.267.654.267.653.267.654.267.653.268.769.343.769.344.769.343.768.344.77.343.768.344.769.344.769.343.769.344.769.344.768.343.77.344.345.23zM43.863 6.195l-.884-.42-.653-.267-.538-.19-.538-.191-.423-.114-.538-.19-.423-.115-.307-.038-.423-.114-.307-.037-.423-.114-.307-.038-.307-.038-.308-.037-.307-.038-.423-.114-.307-.038-.307-.037-.192.039-.307-.038-.308-.038-.192.04-.307-.038-.307-.038-.307-.038-.192.04-.308-.038-.191.039-.192.039-.308-.038-.192.039-.307-.038-.192.04-.192.038-.307-.038-.192.04-.192.038-.192.039-.307-.038-.192.04-.192.038-.191.04-.192.038-.192.039-.192.039-.192.039-.192.039-.192.038-.192.04-.192.038-.192.04-.191.038-.192.039-.269.154-.192.04-.192.038-.191.039-.269.154-.192.04-.268.153-.192.04-.268.154-.192.038-.269.155-.167.245-.255-.36-.04-.191-.038-.192-.154-.269-.04-.191-.038-.192.306-.462.268-.154.269-.155.192-.038.268-.155.268-.154.192-.039L27 3.32l.268-.154.192-.039.192-.039.269-.154.192-.039.191-.039.192-.039.192-.039.192-.039.192-.038.192-.04.192-.038.192-.04.192-.038.191-.039.192-.039.192-.039.192-.039.192-.038.192-.04.192-.038.307.037.192-.039.192-.038.192-.04.307.038.192-.039.192-.038.307.037.192-.039.307.038.192-.04.192-.038.307.038.308.037.191-.039.308.038.307.038.307.037.192-.039.308.038.307.038.307.037.307.038.308.037.307.038.307.038.308.037.307.038.423.114.307.037.422.115.308.037.422.114.423.114.423.114.422.115.539.19.538.19.653.268 1 .497 1.961 1.3.5.498-.802 1.461-.115-.076-2.193-1.454zM33.634 30.144l-.154-.269-.039-.192-.039-.192-.154-.268-.04-.192-.038-.192-.154-.268-.04-.192-.038-.192-.154-.268-.04-.192-.038-.192-.154-.268-.04-.192-.038-.192-.154-.269-.04-.192-.038-.191-.154-.269-.04-.192-.154-.268-.039-.192-.038-.192-.155-.268-.039-.192-.039-.192-.154-.268-.039-.192-.039-.192-.154-.269-.039-.191-.039-.192-.154-.269-.039-.192-.039-.192-.154-.268-.039-.192-.039-.192-.154-.268-.039-.192-.039-.192-.154-.268-.039-.192-.039-.192-.154-.268-.04-.192-.038-.192-.154-.269-.04-.192-.038-.191-.154-.269-.04-.192-.038-.192-.04-.191-.153-.269-.04-.192-.038-.192-.039-.192-.039-.191-.154-.269-.04-.192-.038-.192-.039-.192-.154-.268-.039-.192-.039-.192-.039-.192-.154-.268-.039-.192-.039-.192-.039-.192-.154-.268-.039-.192-.039-.192-.039-.192-.154-.268-.039-.192-.039-.192-.039-.192-.154-.268-.039-.192-.039-.192-.039-.192-.039-.192-.154-.268-.039-.192-.039-.192-.039-.192-.154-.268-.039-.192-.039-.192-.038-.192-.155-.268-.039-.192-.039-.192-.038-.192-.155-.268-.039-.192-.039-.192-.038-.192-.155-.268-.039-.192-.038-.192.229-.346.268-.155.269-.154.268-.154.192-.04.268-.153.192-.04.192-.038.269-.154.192-.04.191-.038.192-.04.269-.154.192-.038.192-.04.191-.038.192-.039.192-.039.192-.039.192-.039.192-.039.192-.038.307.037.192-.039.192-.039.192-.039.192-.038.307.037.192-.039.192-.039.307.038.192-.039.307.038.192-.04.192-.038.307.038.308.037.191-.039.308.038.307.037.192-.038.307.037.307.038.308.037.307.038.307.038.308.037.307.038.307.037.423.115.307.037.423.114.307.038.423.114.538.19.422.115.539.19.653.267.769.344 2.423 1.607-.42.884-.803 1.461-.802 1.461-.803 1.461-.802 1.462-.803 1.46-.803 1.462-.802 1.461-.803 1.461-.726 1.346-.803 1.461-.802 1.462-.803 1.46-.802 1.462-.689 1.039-.039-.192zm-2.904 5.383-.114.423-.114.422-.115.423-.114.423-.114.422-.114.423-.114.423-.114.422-.114.423-.114.423-.114.422-.115.423-.114.423-.114.422-.114.423-.114.423-.114.422-.114.423-.114.423-.114.422-.115.423-.114.423-.114.423-.114.422-.114.423-.114.423-.19.538-.115.422-.19.538-.115.423-.19.538-.114.423-.19.538-.191.538-.115.423-.19.538-.114.422-.19.538-.115.423-.19.538-.115.423-.19.538-.114.423-.191.538-.114.422-.19.538-.115.423-.19.538-.115.423-.23-.153-.192.039-.308-.038-.422-.114-.307-.038-.308-.037-.422-.114-.539-.19-.538-.192-.653-.267-.654-.267-2.615-1.567-.23-.153-1.424-1.11-.731-.651-.616-.575-.5-.497-.386-.422-.385-.421-.385-.422-.27-.344-.27-.345-.153-.269-.27-.345-.154-.268-.155-.268-.154-.269-.154-.268-.155-.269-.154-.268-.154-.268-.039-.192-.154-.269-.04-.192-.038-.192-.154-.268-.04-.192-.038-.192-.039-.192-.039-.191.153-.231.269-.155.268-.154.192-.039.268-.154.269-.154.268-.155.192-.038.268-.155.269-.154.191-.039.269-.154.268-.155.269-.154.192-.039.268-.154.268-.154.269-.155.192-.038.268-.155.268-.154.192-.039.269-.154.268-.154.269-.155.191-.039.269-.154.268-.154.192-.04.269-.153.268-.155.268-.154.192-.039.269-.154.268-.154.268-.155.192-.039.269-.154.268-.154.192-.039.268-.154.269-.155.268-.154.192-.039.268-.154.269-.154.192-.04.268-.154.192-.038.268-.155.269-.154.192-.039.268-.154.192-.039.268-.154.269-.155.192-.039.268-.154.192-.039.268-.154.192-.039.269-.154.268-.154.192-.04.268-.154.192-.039.269-.154.268-.154.192-.039.268-.154.192-.04.268-.153.192-.04.269-.154.268-.154.192-.039.268-.154.192-.039.269-.154.268-.155.192-.038.268-.155.192-.039.269-.154.192-.039.268-.154.268-.154-.037.307zm2.297-2.463zm.239 3.148-.122-.109.198-.007-.076.116zM23.534 59.66l-.114.422-.19.538-.498.5-.307-.037-.192.04-.423-.115-.307-.037-.308-.038-.422-.114-.423-.114-.423-.114-.538-.191-.538-.19-.769-.344-.884-.42-3.692-2.448-1.078-.88-.731-.652-.616-.574-.385-.421-.5-.498-.385-.422-.27-.345-.27-.345-.27-.344-.27-.345-.269-.345-.154-.269-.27-.345-.154-.268-.154-.268-.155-.269-.154-.268-.154-.268-.154-.269-.04-.192-.154-.268-.039-.192-.154-.268-.039-.192-.039-.192-.154-.269-.039-.192-.039-.191-.039-.192-.039-.192-.038-.192.23-.346.267-.155.192-.038.269-.155.268-.154.23.153.04.192.039.192.039.192.154.268.039.192.039.192.154.268.154.269.04.192.153.268.155.268.154.269.154.268.04.192.269.345.154.268.27.345.154.269.27.344.27.345.27.345.269.345.5.498.385.421.385.422.732.65.616.575 1.308 1.033 2.538 1.683 1.23.65.77.344.653.267.538.19.538.191.423.114.423.114.307.038.307.038.423.114.307.037.115.077zm3.184-1.544.114-.423.114-.423.19-.538.115-.423.114-.422.114-.423.114-.423.114-.422.114-.423.114-.423.114-.422.114-.423.115-.423.114-.422.114-.423.114-.423.19-.538.115-.422.114-.423.114-.423.114-.422.114-.423.114-.423.114-.422.114-.423.114-.423.115-.422.19-.539.114-.422.19-.538.191-.538.115-.423.19-.538.114-.423.19-.538.115-.422.19-.539.115-.422.19-.538.114-.423.191-.538.19-.538.115-.423.19-.538.114-.423.191-.538.114-.422.19-.538.27.344.155.269.154.268.154.269.27.345.154.268.155.268.27.345.154.269.154.268.27.345.154.268.154.269.27.345.154.268.154.268.155.269.27.345.154.268.154.268.27.345.154.269.154.268.27.345.154.268.154.269.155.268.27.345.154.269.154.268.27.345.154.268.154.269.154.268.155.268.154.269.154.268.155.269.154.268.154.268.154.269.155.268.154.268.27.345.154.269.154.268.154.269.155.268.154.268.154.269.155.268.154.269.154.268.154.268.155.269.154.268.154.268.155.269.154.268.154.269.154.268.155.268.27.345.154.269.154.268.154.269.155.268.154.268.154.269-.267.653-.421.385-.345.27-.269.154-.345.27-.268.154-.192.039-.268.154-.269.155-.268.154-.268.154-.192.04-.269.153-.192.04-.268.154-.192.038-.192.04-.268.154-.192.039-.192.038-.268.155-.192.039-.192.038-.192.04-.192.038-.192.04-.268.153-.192.04-.192.038-.192.04-.192.038-.192.039-.192.039-.191.039-.192.039-.192.038-.192.04-.307-.038-.192.039-.192.039-.192.038-.192.04-.192.038-.307-.037-.192.039-.192.038-.192.04-.307-.038-.192.039-.192.038-.307-.037-.192.039-.307-.038-.192.039-.308-.038-.191.04-.308-.038-.307-.038-.307-.038-.192.04-.307-.038-.423-.114-.307-.038-.308-.038-.307-.037-.423-.114-.422-.114-.423-.115-.538-.19-.769-.344-.462-.306.115-.422zm31.706-19.012.04.192-.038.307.038.192-.037.307-.038.307-.037.308-.038.307-.038.307-.037.307-.114.423-.114.423-.115.422-.114.423-.19.538-.267.654-.191.538-.497 1-1.032 1.807-.765 1.154-1.186 1.539-.728.846-.497.5-.498.501-.345.27-.422.385-.344.27-.269.154-.345.27-.268.154-.269.154-.268.154-.268.155-.269.154-.192.039-.268.154-.192.04-.192.038-.461-.306-.155-.268-.154-.269-.27-.345-.154-.268-.154-.269-.154-.268-.27-.345-.154-.268-.155-.269-.27-.344-.154-.269-.154-.268-.27-.345-.154-.269-.154-.268-.27-.345-.154-.268-.154-.269-.27-.345-.154-.268-.155-.268-.154-.269-.27-.345-.154-.268-.154-.268-.27-.345-.154-.269-.154-.268-.27-.345-.154-.268-.155-.269-.27-.345-.154-.268-.154-.268-.27-.345-.154-.269-.154-.268-.154-.268-.155-.269-.154-.268-.154-.269-.155-.268-.154-.268-.154-.269-.155-.268-.154-.269-.154-.268-.154-.268-.27-.345-.154-.269-.155-.268-.154-.269-.154-.268-.154-.268-.155-.269-.154-.268-.154-.268-.155-.269-.154-.268-.154-.269-.154-.268-.155-.268-.27-.345-.154-.269-.154-.268-.154-.268-.154-.269-.155-.268-.154-.269-.154-.268-.231-.153.153-.23.346.229.307.037.423.114.307.038.308.038.422.114.308.037.422.114.307.038.308.038.422.114.308.037.422.114.308.038.307.038.423.114.307.037.307.038.423.114.307.038.423.114.307.037.307.038.423.114.307.038.423.114.307.038.308.037.422.114.308.038.307.037.423.114.307.038.423.114.307.038.307.037.423.115.307.037.423.114.307.038.307.038.423.114.307.037.308.038.422.114.307.038.423.114.308.037.307.038.422.114.308.038.422.114.308.037.307.038.423.114.307.038.307.037.423.114.307.038.423.114.307.038.307.037.423.114.307.038.423.114.346.23zM46.722 57.757l.155.268.154.269.154.268.154.269.155.268-.153.23-.422.386-.345.27-.344.27-.345.269-.269.154-.345.27-.268.154-.268.154-.269.155-.268.154-.192.039-.268.154-.269.154-.192.04-.268.154-.192.038-.268.155-.192.039-.269.154-.192.039-.192.039-.268.154-.192.039-.192.039-.192.039-.268.154-.192.039-.192.039-.192.039-.192.038-.191.04-.192.038-.192.04-.192.038-.192.039-.192.039-.192.039-.192.039-.192.038-.191.04-.192.038-.192.04-.192.038-.192.039-.192.039-.192.039-.307-.038-.192.039-.192.039-.192.039-.192.039-.307-.038-.192.039-.192.039-.192.039-.307-.038-.192.04-.307-.039-.192.04-.307-.038-.192.039-.192.039-.307-.038-.308-.038-.192.04-.307-.038-.307-.038-.307-.038-.192.04-.308-.038-.422-.114-.307-.038-.308-.038-.307-.037-.423-.114-.307-.038-.423-.114-.538-.19-.422-.115-.77-.343-.922-.612.037-.308.114-.422.114-.423.153-.23.77.343.537.19.423.114.538.191.307.038.423.114.423.114.307.037.307.038.308.038.307.037.307.038.307.038.308.037.192-.039.307.038.307.037.192-.038.307.037.192-.039.307.038.192-.039.308.038.192-.04.191-.038.308.037.192-.038.192-.04.307.038.192-.039.192-.039.191-.038.192-.04.308.038.192-.039.191-.038.192-.04.192-.038.192-.04.192-.038.192-.039.192-.039.192-.039.192-.039.307.038.268-.154.192-.04.192-.038.192-.039.192-.039.192-.039.192-.039.192-.039.191-.038.269-.155.192-.039.192-.038.268-.155.192-.039.192-.039.268-.154.192-.039.268-.154.192-.039.269-.154.268-.154.192-.04.268-.154.269-.154.268-.154.269-.154.268-.155.345-.27.268-.154.345-.27.345-.27.421-.384.192-.039zm11.952-11.013.497-1 .267-.653.267-.653.114-.423.19-.538.115-.423.114-.422.114-.423.038-.307.037-.308.114-.422.038-.308.038-.307-.04-.192.038-.307.038-.307-.039-.192.153-.231.423.114.307.038.307.037.462.306-.038.308.04.192-.038.307.039.192-.038.307-.038.307-.037.308-.038.307-.038.307-.037.307-.114.423-.038.307-.114.423-.114.423-.19.538-.115.422-.267.654-.267.653-.42.885-.573 1.115-2.601 3.923-.728.847-.65.73-.498.501-.498.5-.345.27-.422.385-.344.27-.345.27-.269.154-.345.27-.268.154-.268.154-.269.155-.268.154-.269.154-.268.154-.192.04-.268.154-.192.039-.269.154-.346-.23-.27-.345-.154-.268-.154-.268-.244-.17.282-.138.268-.154.192-.039.268-.154.269-.154.268-.155.269-.154.268-.154.268-.154.345-.27.269-.154.344-.27.345-.27.422-.385.345-.27.497-.5.498-.5.651-.732.88-1.077 1.99-3 .65-1.23zm3.614 1.565.42-.884.267-.653.267-.654.114-.423.19-.538.115-.422.114-.423.114-.423.114-.422.038-.308.114-.422.038-.308.037-.307.038-.307.037-.307-.038-.192.037-.308.038-.307-.04-.192.038-.307-.038-.192.037-.307-.039-.192-.039-.192-.038-.192-.155-.268-.154-.269-.154-.268-.808-.536-.538-.19-.307-.038-.308-.037-.422-.114-.308-.038-.307-.038-.423-.114-.307-.037-.307-.038-.308-.038-.422-.114-.307-.037-.423-.114-.307-.038-.308-.038-.422-.114-.308-.037-.422-.114-.308-.038-.307-.038-.423-.114-.307-.037-.423-.115-.307-.037-.423-.114-.307-.038-.307-.037-.423-.115-.307-.037-.423-.114-.307-.038-.423-.114-.307-.038-.307-.037-.423-.114-.307-.038-.423-.114-.307-.038-.307-.037-.423-.114-.307-.038-.423-.114-.307-.038-.423-.114-.307-.037-.308-.038-.422-.114-.308-.038-.422-.114-.308-.037-.422-.115-.308-.037-.307-.038-.422-.114-.308-.038-.422-.114-.308-.037-.307-.038-.423-.114-.307-.038-.423-.114-.307-.037-.423-.114-.307-.038-.307-.038-.423-.114-.307-.037-.423-.114-.307-.038-.307-.038-.423-.114-.307-.037-.423-.114-.307-.038-.423-.114-.307-.038-.308-.037-.422-.115.955-1.691.803-1.462.726-1.346.726-1.345.803-1.462.726-1.345.803-1.462.726-1.345.802-1.462.726-1.345.726-1.346.803-1.461.726-1.346.803-1.461.726-1.346.879-1.577.88-1.576.42-.885.113-.422.038-.308-.039-.192-.039-.191-.039-.192-.039-.192-.038-.192-.155-.269-.154-.268-.5-.498-3-1.989-.885-.42-.538-.19-.654-.268-.538-.19-.422-.114-.423-.114L41.2.94l-.422-.114-.423-.114-.307-.037-.308-.038-.422-.114-.307-.038-.308-.037-.307-.038-.307-.037-.308-.038-.307-.038-.307-.037-.307-.038-.308-.038-.307-.037-.307-.038-.308-.037-.191.038-.308-.037-.307-.038-.192.04-.307-.038L34.018 0l-.192.039L33.518 0l-.192.04-.191.038-.308-.038-.192.04-.307-.038-.192.039-.192.038-.307-.037-.192.039-.192.039-.192.039-.192.038-.307-.037-.192.039-.192.039-.192.039-.191.038-.192.04-.192.038-.192.039-.192.039-.192.039-.192.039-.192.039-.192.039-.191.038-.192.04-.269.154-.192.038-.192.04-.191.038-.192.04-.269.154-.192.038-.268.155-.192.039-.268.154-.192.039-.269.154-.268.154-.192.04-.268.153-.269.155-.345.27-.459.692-.461-.306-.423-.114-.307-.038-.307-.038-.192.04-.192.038-.192.04-.192.038-.192.039-.192.039-.192.039-.192.039-.191.038-.192.04-.192.038-.192.04-.192.038-.268.154-.192.04-.192.038-.269.154-.191.04-.192.038-.269.154-.192.04-.268.154-.268.154-.192.039-.269.154-.268.154-.192.04-.268.154-.269.154-.345.27-.268.154-.268.154-.269.154-.268.155-.345.27-.345.269-.268.154-.345.27-.345.27-.422.385-.344.27-.422.384-.345.27-.498.5-.498.501-.497.5-.575.616-.727.847-2.754 4.154-.344.769-.343.769-.191.538-.19.538-.115.423-.037.307-.114.423-.038.307-.038.307.04.192.038.192-.076.115-.269.155-.192.039-.345.27-1.147 1.73-.497 1-.267.653-.19.538-.191.538-.114.423-.114.423-.114.422-.114.423-.038.307-.114.423-.038.307-.037.308-.038.307-.038.307-.037.307-.038.308-.037.307-.038.307-.038.308.04.191-.038.308-.038.307.039.192-.038.307.04.192-.038.307.038.192-.037.308.039.191-.038.308.039.192-.038.307.04.192.038.192-.037.307.039.192.038.192-.037.307.039.192.039.192.038.192-.037.307.039.192.039.192.039.192.038.192.04.191.038.192.04.192.038.192-.038.307.155.269.039.192.038.192.04.191.038.192.04.192.038.192.039.192.039.192.039.192.039.192.154.268.039.192.039.192.039.192.154.268.039.192.039.192.154.268.039.192.154.269.039.192.154.268.04.192.153.268.155.269.154.268.154.268.155.269.154.268.154.269.27.344.27.345.807.536-.23.346-.113.423.039.192.038.191-.037.308.039.192.039.192.038.191.155.269.039.192.039.192.038.192.155.268.039.192.039.192.154.268.039.192.154.268.154.269.04.192.153.268.155.268.154.269.154.268.155.269.27.345.154.268.154.268.27.345.27.345.269.345.27.345.27.345.5.498.385.421.385.421.616.575.73.65.617.575 1.193.957 4.038 2.678 1 .496.769.344.538.19.538.191.423.114.422.114.423.114.423.114.307.038.307.038.308.037.307.038.307.037.192-.038.307.037.192-.039.192-.039.192-.039.115.077.155.268 1.73 1.148.654.267.538.19.538.191.423.114.422.114.423.115.307.037.423.114.307.038.308.037.307.038.307.038.307.037.308.038.192-.039.307.038.307.037.307.038.192-.04.308.039.192-.04.307.038.192-.039.307.038.192-.039.307.038.192-.04.192-.038.307.038.192-.04.192-.038.192-.04.307.038.192-.038.192-.04.192-.038.307.037.192-.038.192-.04.192-.038.192-.04.192-.038.192-.039.191-.039.192-.039.192-.039.192-.039.192-.038.192-.04.192-.038.192-.04.192-.038.191-.039.192-.039.192-.039.192-.039.192-.038.192-.04.192-.038.192-.04.268-.153.192-.04.192-.038.192-.04.268-.153.192-.04.192-.038.268-.154.192-.04.192-.038.269-.155.191-.038.269-.155.192-.039.268-.154.268-.154.192-.039.269-.154.268-.155.269-.154.268-.154.268-.154.269-.155.268-.154.345-.27.345-.27.345-.27.345-.269.421-.385.689-1.038.23.153.423.114.192-.04.192-.038.192-.039.192-.039.192-.039.191-.039.269-.154.192-.039.268-.154.269-.154.191-.04.269-.154.268-.154.269-.154.268-.154.268-.155.345-.27.269-.154.345-.27.344-.269.345-.27.422-.385.421-.385.498-.5.498-.5.574-.617.804-.962 3.137-4.73.573-1.116z" class="fil0"/><path id="_161379896" d="m60.237 12.566.732.65.5.498.385.422.27.345.385.421.27.345.154.268.27.345.154.269.27.345.154.268.154.268.154.269.155.268.154.269.154.268.155.268.154.269.039.192.154.268.154.268.04.192.154.269.154.268.039.192.154.268.039.192.039.192.154.269.039.191.154.269.04.192.038.192.039.192.154.268.04.192.038.192.039.192.039.192.039.191.039.192.038.192.04.192.038.192.04.192.038.192.039.192.039.191.039.192-.038.308.039.192.039.191-.038.308.04.192.038.192-.038.307-.037.307-.038.307.04.192-.23.346-.192.04-.308-.038-.191.039-.192.039-.192.038-.308-.037-.191.039-.192.039-.192.038-.308-.037-.191.039-.192.039-.308-.038-.191.039-.192.039-.192.039-.308-.038-.191.039-.192.039-.308-.038-.191.04-.192.038-.192.039-.308-.038-.191.04-.192.038-.308-.037-.192.038-.191.04-.192.038-.308-.037-.191.038-.192.04-.308-.038-.192.039-.191.039-.192.038-.308-.037-.191.039-.192.039-.308-.038-.192.039-.191.039-.192.039-.308-.038-.192.039-.191.039-.308-.038-.192.04-.192.038-.191.039-.308-.038-.192.04-.191.038-.308-.037-.192.038-.191.04-.192.038-.308-.037-.192.039-.191.038-.308-.037-.192.039-.192.039-.191.038-.308-.037-.192.039-.192.039-.307-.038-.192.039-.192.039-.191.039-.308-.038-.192.039-.192.039-.191.039-.308-.038-.192.04-.192.038-.307-.038-.192.04-.192.038-.191.039-.308-.038-.192.04-.192.038-.307-.037-.192.038-.192.04-.192.038-.307-.037-.192.039-.192.038-.307-.037-.192.039-.192.039-.192.038-.307-.037-.192.039-.192.039-.307-.038-.192.039-.192.039-.192.039-.307-.038-.192.039-.192.039-.115-.077.382-.577.804-.962.804-.962.88-1.077.805-.962.803-.962.88-1.077.805-.963.804-.962.804-.962.88-1.077.804-.962.804-.962.88-1.077.804-.962.804-.963.88-1.077.804-.962.804-.962.268-.154 2.078 1.377zm8.946 14.568-.038-.192.037-.307.038-.307-.04-.192.038-.308-.038-.191-.04-.192.038-.308-.039-.191-.039-.192-.038-.192-.04-.192-.038-.192.037-.307-.038-.192-.04-.192-.038-.192-.04-.192-.153-.268-.04-.192-.038-.192-.04-.192-.038-.192-.039-.192-.039-.192-.039-.192-.154-.268-.039-.192-.039-.192-.039-.192-.154-.268-.039-.192-.154-.268-.039-.192-.039-.192-.154-.268-.04-.192-.153-.269-.155-.268-.038-.192-.155-.268-.154-.269-.039-.192-.154-.268-.155-.269-.154-.268-.154-.268-.154-.269-.155-.268-.154-.268-.154-.269-.155-.268-.27-.345-.154-.269-.27-.344-.153-.269-.27-.345-.27-.345-.385-.421-.27-.345-.5-.498-.5-.498-.616-.574-2.347-1.722.727-.847.269-.154.307.038 2.308 1.53.731.65.5.499.386.42.385.422.27.345.384.422.27.344.27.345.154.269.27.345.154.268.27.345.154.268.154.269.155.268.154.268.154.269.154.268.155.269.154.268.154.268.04.192.153.269.155.268.039.192.154.268.154.269.04.192.153.268.04.192.038.192.154.268.04.192.154.269.039.191.154.269.039.192.039.192.038.192.04.191.038.192.155.269.038.192.04.191.038.192.04.192.038.192.039.192.039.192.039.192.039.192.038.192.04.192.038.191-.037.308.039.192.038.192.04.191-.038.308.039.192-.038.307.039.192-.038.307.04.192-.038.307-.038.307-.038.308-.23.346-.191.039-.192.039-.192.039-.192.038-.307-.037-.192.039-.307-.038.153-.23.037-.308zm3.65.759.038-.308.037-.307.038-.307.038-.307.037-.308-.039-.192.038-.307-.039-.192.038-.307-.04-.192.038-.307-.039-.192-.038-.192-.04-.192.038-.307-.039-.192-.038-.192-.04-.192-.038-.192-.04-.192-.038-.192-.039-.192-.039-.191-.039-.192-.039-.192-.038-.192-.04-.192-.038-.192-.04-.192-.038-.192-.039-.192-.039-.191-.154-.269-.04-.192-.038-.192-.039-.191-.039-.192-.154-.269-.039-.192-.039-.192-.154-.268-.039-.192-.154-.268-.039-.192-.039-.192-.154-.268-.155-.269-.038-.192-.155-.268-.154-.268-.039-.192-.154-.269-.04-.192-.153-.268-.155-.268-.154-.269-.154-.268-.154-.269-.155-.268-.154-.268-.154-.269-.155-.268-.154-.269-.154-.268-.27-.345-.154-.268-.27-.345-.154-.269-.27-.344-.27-.345-.385-.422-.27-.345-.384-.421-.385-.421-.5-.498-.732-.651-3.346-2.219-.423-.114L60.605 6l-.192.038L60.105 6l-.191.039-.269.154-.192.039-.268.154-.421.385-.957 1.193-1.187 1.54-.88 1.077-.804.962-.804.962-.88 1.077-.804.962-.804.962-.804.962-.88 1.078-.804.962-.804.962-.88 1.077-.805.962-.803.962-.804.962-.88 1.078-.805.962-.804.962-.803.962-1.148 1.73-.038.308-.037.307.039.192.039.192.039.192.038.192.155.268.27.345.807.535.423.115.307.037.307.038.192-.04.192-.038.307.038.192-.04.192-.038.308.037.191-.038.192-.04.192-.038.307.037.192-.039.192-.038.308.037.191-.039.192-.039.308.038.191-.039.192-.039.192-.039.308.038.191-.039.192-.039.308.038.192-.04.191-.038.192-.039.308.038.192-.04.191-.038.308.037.191-.038.192-.04.192-.038.308.037.191-.039.192-.038.308.037.192-.039.191-.039.308.038.192-.039.192-.039.191-.039.308.038.192-.039.192-.039.307.038.192-.04.192-.038.191-.039.308.038.192-.04.192-.038.307.038.192-.04.192-.038.191-.04.308.039.192-.04.192-.038.307.037.192-.039.192-.038.307.037.192-.039.192-.039.192-.039.307.038.192-.039.192-.039.307.038.192-.039.192-.039.192-.039.307.038.192-.039.192-.039.307.038.192-.04.192-.038.192-.039.307.038.192-.04.192-.038.307.037.192-.039.192-.038.307.037.192-.039.192-.038.192-.04.307.038.192-.039.192-.039.307.038.192-.039.192-.039.192-.039.307.038.192-.039.192-.039.307.038.192-.04.192-.038.192-.039.307.038.192-.04.192-.038.307.038.192-.04.192-.038.192-.04.307.038.192-.038.192-.04.307.038.192-.039.192-.039.192-.038.307.037.192-.039.192-.039.307.038.192-.039.192-.039.268-.154.192-.039.269-.154.268-.155.612-.923.114-.422z" class="fil0"/><path id="_161383424" d="m49.692 47.766.27.345.154.268.039.192-.038.307-.114.423-.153.23-.422.386-.191.039-.154.23-.23-.153-.192.04-.923-.613-.155-.268-.039-.192-.038-.192.037-.307.612-.923.192-.04.153-.23.23.153.193-.039.422.114.347.23zm2.5 1.99.115-.423.037-.307.038-.307-.039-.192-.039-.192-.039-.192-.039-.192-.038-.192-.04-.192-.154-.268-.154-.268-.154-.269-.27-.345-1.27-.841-.537-.19-.308-.038-.307-.038-.192.039-.192.039-.307-.038-.192.04-.268.153-.192.04-.192.038-.268.154-.345.27-.345.27-.842 1.27-.114.422-.037.307-.038.307-.038.308.04.192.038.191.04.192.038.192.039.192.039.192.154.268.154.269.27.345.616.574.346.23.769.343.423.114.191-.039.308.038.192-.039.307.038.192-.04.192-.038.268-.154.192-.04.192-.038.268-.154.345-.27.498-.5.383-.577.267-.654z" class="fil0"/><path id="_161383304" d="m40.304 10.812.154.269.04.191.038.192.04.192-.115.423-.306.461-.268.155-.269.154-.192.039-.307-.038-.808-.535-.154-.269-.039-.191-.039-.192.038-.308.535-.807.269-.155.192-.038.192-.04.422.115.577.382zm2.27 1.837.114-.422.038-.307-.039-.192.038-.308-.04-.192-.038-.191-.039-.192-.039-.192-.039-.192-.154-.269-.039-.191-.27-.345-.27-.345-1.153-.765-.538-.19-.307-.038-.308-.038-.307-.038-.192.04-.192.038-.192.039-.192.039-.191.039-.269.154-.192.04-.268.153-.269.155-.497.5-.536.808-.19.538-.115.422-.037.308.039.192.039.192.038.191.04.192.038.192.04.192.038.192.154.268.155.269.154.268.5.498.923.612.539.19.307.038.307.038.307.038.192-.04.192-.038.192-.04.192-.038.192-.039.192-.039.268-.154.269-.154.268-.155.498-.5.459-.692.19-.539z" class="fil0"/><path id="_161383328" d="m60.883 24.621-.039-.192-.039-.192.038-.307.535-.808.269-.154.192-.039.191-.039.308.038.577.382.27.345.038.192.04.192.038.192-.038.307-.459.693-.191.038-.269.155-.307-.038-.307-.037-.577-.383-.27-.345zm4.494.488.037-.308.038-.307.038-.307-.04-.192-.038-.192-.04-.192-.038-.192-.039-.192-.039-.192-.039-.191-.154-.269-.154-.268-.27-.345-1.385-.918-.422-.114-.308-.038-.307-.037-.307-.038-.192.039-.192.039-.192.039-.192.039-.192.038-.192.04-.191.038-.269.155-.345.27-.574.615-.23.346-.343.77-.038.306-.114.423.039.192.039.192-.038.307.04.192.038.192.154.268.04.192.154.269.038.191.27.345.27.345 1.038.689.538.19.308.038.307.038.192-.04.307.038.192-.039.192-.039.192-.038.192-.04.268-.154.192-.038.268-.155.269-.154.421-.385.612-.923.19-.538z" class="fil0"/><path id="_161383232" d="m16.473 46.008.27.345.038.192.039.192.039.192-.038.307-.459.692-.268.155-.192.039-.192.038-.307-.037-.423-.114-.346-.23-.27-.345-.039-.192-.039-.191.038-.308.19-.538.077-.115.345-.27.192-.039.268-.154.308.038.422.114.347.23zm2.423 1.607.037-.308.038-.307-.039-.192-.039-.192-.039-.192-.039-.192-.039-.191-.038-.192-.04-.192-.154-.269-.154-.268-.27-.345-1.5-.994-.422-.114-.308-.038-.191.039-.308-.038-.192.04-.192.038-.191.039-.192.039-.192.039-.192.039-.269.154-.268.154-.345.27-.918 1.385-.19.538-.038.307.039.192-.038.307.04.192.038.192.039.192.039.192.039.192.039.191.154.269.154.268.27.345 1.385.918.538.19.307.038.307.038.307.038.269-.155.192-.039.192-.039.192-.038.268-.155.192-.039.268-.154.345-.27.995-1.5.114-.422z" class="fil0"/><path id="_161383064" d="m35.37 18.005.154.269-.038.307-.038.307-.459.693-.268.154-.307-.038-.308-.037-.692-.46-.154-.268-.04-.191.038-.308.038-.307.153-.23.421-.386.192-.039.192-.039.308.038.807.535zm2.192 1.454.037-.307.038-.308-.039-.192.038-.307-.04-.192-.038-.192-.039-.191-.039-.192-.154-.269-.04-.192-.153-.268-.155-.268-.385-.422-.807-.535-.539-.191-.307-.038-.307-.037-.192.039-.307-.038-.192.039-.307-.038-.192.04-.269.154-.192.039-.268.154-.345.27-.65.73-.077.116-.42.884-.038.308-.038.307-.037.307.039.192.039.192.038.192.04.192.038.192.04.192.038.191.154.269.155.268.27.345 1.269.842.422.114.308.037.307.038.192-.039.307.038.192-.04.192-.038.192-.04.268-.153.192-.04.268-.154.269-.154.421-.385.689-1.038.114-.423z" class="fil0"/><path id="_161382944" d="m17.517 33.91-.155-.268-.039-.192.038-.308.459-.692.268-.154.192-.04.192-.038.307.038.693.459.154.268.039.192.039.192-.038.307-.382.577-.345.27-.192.039-.307-.038-.308-.038-.461-.306-.155-.268zm4.186.45.114-.423.038-.307-.04-.192.039-.307-.04-.192-.038-.192-.04-.192-.153-.268-.04-.192-.154-.269-.154-.268-.27-.345-1.5-.994-.422-.114-.192.038-.308-.037-.307-.038-.192.04-.192.038-.191.039-.269.154-.192.04-.268.153-.269.155-.421.385-.765 1.154-.114.422-.114.423-.038.307.04.192.038.192-.038.307.04.192.154.269.038.191.04.192.269.345.27.345 1.384.918.423.114.307.038.308.038.192-.04.191-.038.192-.04.308.038.268-.154.192-.039.192-.039.268-.154.345-.27.651-.73.153-.232.267-.653z" class="fil0"/><path id="_161382848" d="m46.102 40.403.154.268.039.192-.038.307-.535.808-.192.039-.153.23-.23-.152-.193.038-.808-.535-.038-.192-.231-.153.153-.23-.04-.193.536-.807.192-.04.269-.154.307.038.808.535zm2.116 1.568.114-.422.037-.308-.039-.191.038-.308-.039-.192-.039-.192-.039-.191-.154-.269-.039-.192-.154-.268-.154-.268-.27-.345-1.27-.842-.422-.114-.307-.038-.308-.037-.191.039-.308-.038-.192.039-.192.039-.268.154-.192.04-.268.153-.192.04-.345.269-1.071 1.615-.114.423-.038.307.04.192-.038.308.038.191.04.192.038.192.04.192.153.268.155.269.154.268.27.345 1.269.842.423.114.307.037.307.038.307.038.192-.04.192-.038.192-.04.192-.038.192-.039.268-.154.269-.154.345-.27.498-.5.229-.347.344-.769z" class="fil0"/><path id="_161382776" d="m37.535 53.826-.039-.192.46-.693.152-.23.23.153.462.306.155.268.039.192-.46.692-.191.04-.308-.038-.23-.153-.27-.345zm3.61.566.038-.307.038-.307-.039-.192-.039-.192-.039-.192-.038-.192-.04-.192-.154-.268-.039-.192-.27-.345-.384-.421-.693-.46-.538-.19-.307-.037-.307-.038-.192.039-.192.039-.192.039-.192.039-.192.038-.192.04-.192.038-.344.27-.345.27-.689 1.038-.114.423-.038.307-.037.307.039.192.039.192.039.192.038.192.04.192.038.192.154.268.155.268.385.422.808.535.538.19.307.038.307.038.192-.039.192-.039.192-.039.192-.038.192-.04.192-.038.268-.155.268-.154.498-.5.383-.577.267-.654z" class="fil0"/><path id="_161382680" d="m54.31 22.257.155.269.039.192-.46.692-.191.039-.307-.038-.347-.23-.154-.268.038-.307.382-.577.192-.039.308.038.346.23zm2.268.84.038-.308.038-.307-.04-.192-.038-.192-.04-.192-.153-.268-.04-.192-.154-.269-.154-.268-1.5-.995-.423-.114-.307-.037-.192.039-.307-.038-.192.039-.192.039-.268.154-.192.039-.269.154-.268.154-.498.501-.459.692-.114.423-.114.423.039.192-.038.307.04.192.038.192.154.268.04.192.038.192.27.345.27.345.923.612.538.19.307.038.192-.04.307.039.192-.04.192-.038.192-.04.268-.153.192-.04.268-.154.269-.154.345-.27.765-1.154.037-.307z" class="fil0"/><path id="_161382536" d="m17.823 18.665.154.268.04.192-.383.577-.153.23-.231-.152-.693-.459-.038-.192.114-.423.153-.23.268-.155.192-.039.577.383zm2.23 1.146.038-.307-.04-.192.038-.307-.039-.192-.039-.192-.038-.192-.155-.268-.039-.192-.154-.269-.27-.345-1.384-.918-.423-.114-.307-.037-.192.039-.192.038-.192.04-.192.038-.192.04-.268.153-.192.04-.345.269-.345.27-.535.807-.19.538-.039.308-.037.307.039.192.039.192.039.192.038.192.04.191.038.192.155.269.154.268.5.498.693.46.538.19.307.037.307.038.192-.039.192-.039.192-.039.192-.039.192-.039.192-.038.268-.155.268-.154.345-.27.689-1.038.114-.423z" class="fil0"/><path id="_161382416" d="m22.556 52.367.154.268-.037.307-.383.577-.192.04-.423-.115-.23-.153-.155-.268.038-.308.382-.577.192-.039.308.038.346.23zm2.306 1.03.038-.307-.039-.192.038-.307-.04-.192-.038-.192-.039-.192-.154-.268-.04-.192-.153-.268-.27-.345-1.27-.842-.422-.114-.307-.038-.192.04-.308-.038-.191.039-.192.039-.269.154-.192.039-.268.154-.268.154-.995 1.5-.114.423-.038.307.04.192.038.192.039.192.039.192.039.192.154.268.154.269.155.268.5.498.462.306.653.267.307.038.308.037.192-.039.192-.039.307.038.192-.039.268-.154.192-.039.345-.27.345-.27.612-.923.19-.538z" class="fil0"/><path id="_161382344" d="m32.857 11.523-.039-.192-.039-.192.038-.308-.039-.191-.039-.192-.039-.192.037-.308-.038-.191-.039-.192-.039-.192-.039-.192.038-.307-.039-.192-.039-.192-.27-.345-.461-.306-.308-.038-.192.039-.192.039-.268.154-.383.577-.037.308.039.192-.038.307.039.192.039.192.039.192-.038.307.039.192.039.192.039.191-.038.308.039.192.039.192.039.191.154.269.693.459.307.037.192-.038.192-.039.345-.27.076-.115z" class="fil0"/><path id="_161382272" d="m13.125 28.507-.039-.192-.039-.192-.154-.268-.461-.306-.308-.038-.192.039-.191.039-.192.039-.269.154-.498.501-.574.616-.574.615-.383.577-.114.423.039.192.154.268.923.612.192-.039.269-.154.344-.27.498-.5.575-.616.498-.5.382-.577z" class="fil0"/><path id="_161382152" d="m25.062 41.57-.039-.192-.038-.192-.039-.192-.693-.458-.307-.038-.192.039-.192.039-.345.269-.574.616-.498.501-.574.616-.306.461-.114.423.038.192.039.192.155.268.461.306.423.114.192-.039.192-.039.345-.269.497-.501.575-.616.498-.5.459-.692z" class="fil0"/><path id="_161382032" d="m33.505 54.642-.039-.191-.039-.192-.807-.536-.308-.037-.191.038-.269.155-.498.5-.574.616-.498.5-.689 1.039.039.192.039.192.039.192.154.268.231.153.538.191.192-.039.192-.039.192-.039.421-.385.575-.616.498-.5.841-1.27z" class="fil0"/><path id="_161381936" d="m35.012 43.349-.039-.192-.039-.191.038-.308-.039-.192-.039-.192.038-.307-.039-.192-.039-.192.038-.307-.039-.192-.039-.192-.039-.191-.039-.192-.039-.192-.27-.345-.23-.153-.423-.114-.192.039-.192.038-.268.155-.459.692-.038.307.039.192.039.192.039.192-.038.307.039.192.039.192.039.192-.038.307.039.192.039.192.039.192.039.192.039.192.039.192.807.535.192-.039.192-.039.192-.038.345-.27.153-.231z" class="fil0"/><path id="_161381864" d="m26.781 22.943-.039-.192-.154-.269-.693-.459-.307-.037-.307-.038-.423-.114-.307-.038-.308-.037-.307-.038-.307-.038-.307-.037-.192.039-.192.039-.192.039-.269.154-.305.461-.038.308.039.192.039.191.154.269.462.306.422.114.307.038.308.037.307.038.307.037.423.115.307.037.308.038.191-.039.192-.039.192-.039.192-.039.459-.692z" class="fil0"/><path id="_161383592" d="m12.036 37.917-.039-.191-.039-.192.038-.308-.039-.191-.039-.192-.039-.192-.039-.192.038-.307-.039-.192-.039-.192-.039-.192-.039-.192.038-.307-.154-.269-.808-.535-.192.039-.192.039-.192.038-.535.808-.038.307.039.192.039.192-.038.308.039.191.039.192.039.192.039.192-.038.307.039.192.039.192.039.192.039.192.039.192.039.192.807.535.192-.039.192-.038.192-.039.268-.155.23-.346z" class="fil0"/><path id="_161379728" d="m54.629 41.571-.039-.192-.039-.192-.039-.192-.807-.535-.308-.038-.307-.037-.307-.038-.307-.038-.308-.037-.307-.038-.307-.037-.308-.038-.307-.038-.192.039-.268.155-.459.692.039.192.039.192.039.192.038.191.577.383.423.114.307.038.308.037.307.038.307.037.308.038.307.038.307.037.307.038.192-.039.192-.039.345-.27.153-.23z" class="fil0"/><path id="_161379608" d="m36.101 48.722.038-.307-.155-.268-.807-.536-.308-.037-.307-.038-.307-.038-.307-.037-.308-.038-.307-.037-.423-.115-.192.039-.307-.037-.192.039-.268.154-.383.577-.037.307.039.192.039.192.269.345.231.153.423.114.422.114.308.038.307.037.307.038.307.037.308.038.307.038.307.037.192-.039.192-.039.345-.269.229-.346z" class="fil0"/><path id="_161379488" d="m61.862 17.131-.039-.192-.154-.268-.808-.536-.307-.037-.307-.038-.308-.038-.307-.037-.307-.038-.308-.037-.307-.038-.307-.038-.307-.037-.192.039-.269.154-.382.577-.038.307.039.192.154.268.27.345.115.077.423.114.423.114.307.038.307.037.308.038.307.037.307.038.307.038.308.037.192-.039.192-.038.268-.155.382-.577z" class="fil0"/><path id="_161379344" d="m23.377 13.544-.154-.269-.269-.345-.231-.153-.423-.114-.307-.037-.307-.038-.308-.038-.307-.037-.307-.038-.308-.037-.422-.114-.192.038-.307-.037-.269.154-.535.808.039.192.038.192.039.192.808.535.307.038.423.114.307.037.308.038.307.038.307.037.307.038.308.037.192-.039.192-.038.191-.039.536-.808z" class="fil0"/></g><path d="m58.62 45.028-.037-.34-.059-.235-.059-.235-.06-.234-.083-.129-.059-.235-.082-.129-.083-.129-.083-.129-.082-.129-.083-.128-.082-.129-.083-.129-.083-.129-.188-.152-.083-.129-.188-.152-.188-.152-.189-.152-.082-.129-.189-.152-.188-.153-.188-.152-.189-.152-.188-.152-.188-.152-.294-.175-.189-.152-.188-.152-.188-.152-.189-.152-.188-.153-.294-.175-.188-.152-.295-.175-.188-.152-.188-.152-.294-.176-.294-.175-.189-.152-.294-.175-.294-.175-.188-.152-.294-.176-.294-.175-.294-.175-.295-.175-.399-.199-.295-.175-.294-.175-.399-.199-.4-.198-.294-.175-.506-.222-.4-.198-.4-.199-.505-.221-.612-.245-.611-.245-.611-.245-.823-.291-1.035-.337-2.303-.615-.74-.163-3.302-.612-1.503-.219-1.187-.149-.975-.102-.869-.08-.763-.056-.658-.034-.658-.033-.657-.033-.447.013-.551-.01-.552-.01-.447.013-.446.013-.446.013-.34.036-.447.014-.34.036-.34.036-.341.036-.34.037-.341.036-.34.036-.235.059-.34.037-.235.059-.34.036-.235.06-.235.059-.234.06-.235.059-.235.06-.234.059-.235.059-.235.06-.34.036-.952-.208-.294-.176-.188-.152-.189-.152-.188-.152-.188-.152-.189-.152-.188-.152-.188-.152-.189-.152-.188-.152-.188-.153-.189-.152-.188-.152-.188-.152-.189-.152-.188-.152-.188-.152-.189-.152-.188-.152-.188-.152-.189-.152-.188-.152-.188-.152-.189-.153-.188-.152-.188-.152-.189-.152-.188-.152-.188-.152-.189-.152-.188-.152-.188-.152-.189-.152-.188-.152-.188-.153-.189-.152-.188-.152-.188-.152-.189-.152-.188-.152-.4-.198-1.163-.255-.446.013-.235.059-.235.06-.235.059-.128.083-.235.059-.129.083-.129.082-.129.083-.152.188-.129.083-.129.082-.152.189-.152.188-.175.294-.348 1.587.037.34.036.34.082.129.06.235.059.235.06.234.059.235.083.129.059.235.06.234.059.235.083.129.059.235.059.234.06.235.059.234.083.129.059.235.06.235.059.234.083.129.059.235.06.235.059.234.059.235.083.129.059.235-.092.423-.152.188-.152.188-.129.083-.152.188-.152.189-.153.188-.128.082-.153.189-.152.188-.152.188-.129.083-.152.188-.152.189-.152.188-.152.188-.129.083-.152.188-.152.189-.152.188-.129.083-.152.188-.152.188-.152.189-.152.188-.152.188-.153.189-.175.294-.347 1.586.036.34.059.235.06.235.082.129.083.129.059.234.083.129.083.129.188.152.083.129.082.129.188.152.189.152.188.152.4.199 1.163.255.446-.014.235-.059.235-.059.234-.06.235-.059.235-.06.234-.059.235-.059.235-.06.234-.059.235-.06.235-.059.234-.06.235-.059.235-.059.234-.06.235-.059.235-.06.234-.059.235-.06.235-.059.235-.059.234-.06.235-.059.235-.06.234-.059.235-.059.235-.06.234-.059.235-.06.235-.059.234-.06.235-.059.235-.059.234-.06.235-.059.235-.06.234-.059.235-.06.235-.059.234-.059 1.058.231.294.176.188.152.189.152.188.152.188.152.189.152.188.152.188.152.189.152.188.152.294.175.188.153.294.175.295.175.294.175.294.176.294.175.294.175.294.175.4.199.294.175.4.198.4.199.399.198.506.222.506.221.399.199.612.244.611.245.612.245.717.268.822.291.929.314 1.14.361 1.458.43 3.255.824.74.162 2.35.404 1.08.126.87.079.657.033.658.034.552.01.658.033.446-.013.446-.013.446-.013.446-.013.446-.013.447-.014.34-.036.34-.036.447-.013.34-.036.34-.037.341-.036.34-.036.235-.06.34-.036.341-.036.234-.059.341-.037.34-.036.235-.059.235-.06.34-.036.235-.06.234-.059.341-.036.234-.06.235-.059.235-.06.234-.059.341-.036.235-.06.234-.059.235-.059.235-.06.234-.059.235-.06.235-.059.129-.083.234-.059.235-.06.129-.082.234-.06.129-.082.129-.083.129-.082.129-.083.129-.083.129-.082.129-.083.129-.082.152-.189.129-.082.152-.189.152-.188.152-.188.175-.294.199-.4.417-1.904z" style="fill:#383431"/><path d="m47.777 39.882.295.176.294.175.4.198.294.176.294.175.294.175.188.152.294.175.294.176.189.152.294.175.294.175.188.152.189.152.294.176.188.152.188.152.294.175.189.152.188.152.188.152.189.152.188.153.188.152.295.175.082.129.188.152.189.152.188.152.188.152.189.152.059.235.083.129-.186.846-.128.082-.153.189-.234.059-.235.06-.235.059-.234.059-.129.083-.235.059-.234.06-.341.036-.235.06-.234.059-.235.059-.235.06-.234.059-.235.06-.34.036-.235.059-.34.037-.235.059-.235.059-.34.037-.341.036-.234.059-.341.037-.34.036-.341.036-.234.06-.341.036-.446.013-.34.036-.341.036-.34.037-.446.013 1.812-8.263zM41.264 37.237l1.352.407.928.314.741.162-2.178 9.941-.74-.162-.975-.103-1.398-.196-5.076-1.112-1.563-.453-1.035-.337-.928-.314-.823-.292-.717-.267-.612-.245-.611-.245-.506-.221-.505-.222-.4-.198-.505-.222-.4-.198-.4-.199-.4-.198-.294-.176-.294-.175-.294-.175-.4-.198-.189-.153-.294-.175-.294-.175-.188-.152-.294-.175-.188-.152-.189-.153-.188-.152-.188-.152-.189-.152-.188-.152-.188-.152-.189-.152-.188-.152-.294-.175-.294-.176-.506-.221-1.903-.417-.447.013-.446.013-.235.059-.234.06-.341.036-.234.06-.235.059-.129.083-.235.059-.234.059-.235.06-.235.059-.234.06-.235.059-.235.06-.234.059-.235.059-.235.06-.234.059-.235.06-.235.059-.234.059-.235.06-.235.059-.234.06-.235.059-.235.06-.234.059-.235.059-.235.06-.234.059-.235.06-.235.059-.234.06-.235.059-.235.059.152-.188.152-.188.129-.083.152-.188.153-.189.152-.188.129-.082.152-.189.152-.188.152-.189.152-.188.129-.082.152-.189.152-.188.152-.188.129-.083.152-.188.152-.189.152-.188.152-.188.129-.083.152-.188.152-.189.153-.188.152-.188.231-1.058-.059-.235-.06-.234-.059-.235-.059-.235-.083-.128-.059-.235-.06-.235-.059-.234-.083-.129-.059-.235-.06-.235-.059-.234-.059-.235-.083-.129-.06-.235-.059-.234-.059-.235-.083-.129-.059-.235-.06-.234-.059-.235-.06-.235-.082-.128-.06-.235-.059-.235.188.152.189.152.188.152.188.152.189.153.188.152.188.152.189.152.188.152.188.152.189.152.188.152.188.152.189.152.188.152.188.152.189.153.188.152.188.152.189.152.188.152.188.152.189.152.188.152.188.152.083.129.188.152.189.152.188.152.188.152.189.153.188.152.294.175.188.152.4.198.4.199 1.904.417.552.01.34-.036.34-.037.235-.059.235-.06.234-.059.235-.059.235-.06.234-.059.235-.06.235-.059.235-.059.34-.037.235-.059.34-.036.34-.037.235-.059.446-.013.341-.036.34-.037.341-.036.446-.013.446-.013.446-.013.446-.013.552.01.552.01.552.01.658.033.657.033.764.057.869.079.869.08 1.187.149 1.609.242z" class="fil2"/><path d="m10.725 30.436-.12-.044.143-.062zM8.408 41.011l-.044.12-.061-.143z" class="fil3"/></g></svg>